<svg xmlns="http://www.w3.org/2000/svg" viewBox="0 0 1070 559" width="1070" height="559">
  <defs>
    <linearGradient id="bg" x1="0" y1="0" x2="1070" y2="559" gradientUnits="userSpaceOnUse">
      <stop offset="0%" stop-color="#000000"/>
      <stop offset="100%" stop-color="#0a0000"/>
    </linearGradient>
    <linearGradient id="redAccent" x1="0%" y1="0%" x2="100%" y2="0%">
      <stop offset="0%" stop-color="#dc2626"/>
      <stop offset="100%" stop-color="#991b1b"/>
    </linearGradient>
    <linearGradient id="redGlow" x1="0%" y1="0%" x2="100%" y2="100%">
      <stop offset="0%" stop-color="#ef4444"/>
      <stop offset="100%" stop-color="#b91c1c"/>
    </linearGradient>
    <linearGradient id="goldTrophy" x1="0%" y1="0%" x2="0%" y2="100%">
      <stop offset="0%" stop-color="#fde68a"/>
      <stop offset="40%" stop-color="#fbbf24"/>
      <stop offset="100%" stop-color="#b45309"/>
    </linearGradient>
    <linearGradient id="goldDark" x1="0%" y1="0%" x2="0%" y2="100%">
      <stop offset="0%" stop-color="#d97706"/>
      <stop offset="100%" stop-color="#92400e"/>
    </linearGradient>
    <radialGradient id="redOrb" cx="50%" cy="50%" r="50%">
      <stop offset="0%" stop-color="#dc2626" stop-opacity="0.08"/>
      <stop offset="100%" stop-color="#dc2626" stop-opacity="0"/>
    </radialGradient>
  </defs>

  <!-- Background -->
  <rect width="1070" height="559" fill="url(#bg)"/>

  <!-- Red glow orbs -->
  <ellipse cx="535" cy="200" rx="350" ry="250" fill="url(#redOrb)"/>
  <ellipse cx="200" cy="400" rx="250" ry="200" fill="url(#redOrb)"/>
  <ellipse cx="870" cy="420" rx="250" ry="200" fill="url(#redOrb)"/>

  <!-- Top accent line -->
  <rect x="0" y="0" width="1070" height="3" fill="url(#redAccent)"/>

  <!-- Subtle horizontal rules -->
  <line x1="100" y1="280" x2="430" y2="280" stroke="#1a0000" stroke-width="1"/>
  <line x1="640" y1="280" x2="970" y2="280" stroke="#1a0000" stroke-width="1"/>

  <!-- Trophy -->
  <g transform="translate(535, 210)">
    <path d="M-40,-70 L-40,-100 L40,-100 L40,-70 C40,-25 22,10 0,22 C-22,10 -40,-25 -40,-70Z" fill="url(#goldTrophy)"/>
    <rect x="-42" y="-102" width="84" height="6" rx="2" fill="#fde68a"/>
    <path d="M-40,-65 C-62,-65 -70,-42 -62,-22 C-58,-15 -46,-18 -40,-28" fill="none" stroke="#fbbf24" stroke-width="5" stroke-linecap="round"/>
    <path d="M40,-65 C62,-65 70,-42 62,-22 C58,-15 46,-18 40,-28" fill="none" stroke="#fbbf24" stroke-width="5" stroke-linecap="round"/>
    <polygon points="0,-72 5,-58 20,-58 8,-48 13,-34 0,-44 -13,-34 -8,-48 -20,-58 -5,-58" fill="#b45309" opacity="0.5"/>
    <rect x="-6" y="22" width="12" height="22" rx="2" fill="url(#goldDark)"/>
    <rect x="-24" y="44" width="48" height="8" rx="3" fill="url(#goldDark)"/>
    <rect x="-18" y="52" width="36" height="6" rx="2" fill="#92400e"/>
  </g>

  <!-- Title -->
  <text x="535" y="320" text-anchor="middle" font-family="'Segoe UI','Helvetica Neue',Arial,sans-serif" font-size="52" font-weight="800" fill="#ffffff" letter-spacing="-1">Achievement Badges</text>

  <!-- Subtitle with red -->
  <text x="535" y="358" text-anchor="middle" font-family="'Segoe UI','Helvetica Neue',Arial,sans-serif" font-size="18" font-weight="600" fill="#ef4444" letter-spacing="8">FOR JELLYFIN</text>

  <!-- Tagline -->
  <text x="535" y="410" text-anchor="middle" font-family="'Segoe UI','Helvetica Neue',Arial,sans-serif" font-size="14" font-weight="400" fill="#666666" letter-spacing="2">TRACK PROGRESS  ·  UNLOCK ACHIEVEMENTS  ·  COMPETE ON LEADERBOARDS</text>

  <!-- Rarity pills with red theme -->
  <g transform="translate(535, 470)" font-family="'Segoe UI','Helvetica Neue',Arial,sans-serif" font-size="10" font-weight="700" text-anchor="middle">
    <rect x="-270" y="-12" width="72" height="24" rx="12" fill="none" stroke="#6b7280" stroke-width="1" opacity="0.4"/>
    <text x="-234" y="4" fill="#6b7280">COMMON</text>
    <rect x="-184" y="-12" width="88" height="24" rx="12" fill="none" stroke="#34d399" stroke-width="1" opacity="0.4"/>
    <text x="-140" y="4" fill="#34d399">UNCOMMON</text>
    <rect x="-82" y="-12" width="56" height="24" rx="12" fill="none" stroke="#60a5fa" stroke-width="1" opacity="0.4"/>
    <text x="-54" y="4" fill="#60a5fa">RARE</text>
    <rect x="-12" y="-12" width="52" height="24" rx="12" fill="none" stroke="#a78bfa" stroke-width="1" opacity="0.4"/>
    <text x="14" y="4" fill="#a78bfa">EPIC</text>
    <rect x="54" y="-12" width="96" height="24" rx="12" fill="none" stroke="#fbbf24" stroke-width="1" opacity="0.4"/>
    <text x="102" y="4" fill="#fbbf24">LEGENDARY</text>
    <rect x="164" y="-12" width="68" height="24" rx="12" fill="none" stroke="#ef4444" stroke-width="1" opacity="0.5"/>
    <text x="198" y="4" fill="#ef4444">MYTHIC</text>
  </g>

  <!-- Version pill -->
  <rect x="470" y="520" width="130" height="24" rx="12" fill="none" stroke="#dc2626" stroke-width="1" opacity="0.3"/>
  <text x="535" y="537" text-anchor="middle" font-family="'Segoe UI','Helvetica Neue',Arial,sans-serif" font-size="11" font-weight="600" fill="#dc2626" opacity="0.6">Jellyfin 10.11+</text>

  <!-- Corner accents in red -->
  <line x1="30" y1="30" x2="30" y2="70" stroke="#dc2626" stroke-width="2" opacity="0.25"/>
  <line x1="30" y1="30" x2="70" y2="30" stroke="#dc2626" stroke-width="2" opacity="0.25"/>
  <line x1="1040" y1="30" x2="1040" y2="70" stroke="#dc2626" stroke-width="2" opacity="0.25"/>
  <line x1="1040" y1="30" x2="1000" y2="30" stroke="#dc2626" stroke-width="2" opacity="0.25"/>
  <line x1="30" y1="529" x2="30" y2="489" stroke="#dc2626" stroke-width="2" opacity="0.25"/>
  <line x1="30" y1="529" x2="70" y2="529" stroke="#dc2626" stroke-width="2" opacity="0.25"/>
  <line x1="1040" y1="529" x2="1040" y2="489" stroke="#dc2626" stroke-width="2" opacity="0.25"/>
  <line x1="1040" y1="529" x2="1000" y2="529" stroke="#dc2626" stroke-width="2" opacity="0.25"/>

  <!-- Bottom accent line -->
  <rect x="0" y="556" width="1070" height="3" fill="url(#redAccent)"/>
</svg>
